<svg width="1840" height="953" xmlns="http://www.w3.org/2000/svg" fill="none">

 <g>
  <title>Layer 1</title>
  <path id="svg_1" fill="white" d="m894.508,491.88577c-24.09,2.779 -42.576,2.446 -55.457,-0.999c-12.882,-3.445 -23.04,-10.773 -30.477,-21.984c-8.106,-17.145 -12.602,-26.971 -13.489,-29.477c-4.347,-12.282 -4.829,-24.353 -3.997,-32.475c1.086,-10.608 6.915,-24.431 17.486,-41.469c1.506,-11.845 4.004,-22.337 7.495,-31.475c3.49,-9.139 10.485,-22.295 20.983,-39.47l1.499,-56.457c4.43,-12.923 8.593,-22.083 12.491,-27.479c3.897,-5.396 8.394,-8.228 13.489,-8.494c4.3,-0.408 8.297,0.591 11.991,2.998c3.694,2.407 10.689,8.569 20.984,18.486c8.502,-14.837 18.161,-26.162 28.978,-33.974c10.816,-7.812 25.138,-13.807 42.966,-17.986l2.499,-4.996l0.301,-29.388l-8.295,-71.535l-10.992,0l16.987,-24.981c1.516,-5.505 3.015,-9.501 4.497,-11.991c1.481,-2.489 4.249,-5.321 8.303,-8.493c0.074,-0.92 3.407,-1.42 10,-1.5c6.593,-0.08 16.98,0.253 31.16,1c6.05,1.39 10.22,3.222 12.49,5.496c2.27,2.273 4.27,7.103 5.99,14.489l24.36,26.015l-15.36,0.964l-1.5,47.464c-2.14,8.14 -4.14,13.635 -6,16.487c-1.86,2.852 -4.85,5.017 -8.99,6.495l-24.48,1.499l-3,28.978l2,3.997c12.5,3.574 21,6.405 25.48,8.493c10.77,5.015 20.51,12.277 27.98,24.981c5.23,8.894 10.64,21.18 17.98,33.974c6.47,11.265 18.29,31.083 35.48,59.455l16.98,14.988l8.5,16.987l20.48,15.488l9.49,-30.976c-19.31,-29.311 -28.97,-47.963 -28.97,-55.957c0,-3.341 2.02,-6.491 3.99,-8.494c2.76,-2.789 6.54,-4.503 12.99,-3.997c4.3,0.338 8.47,3.002 12.49,7.994l57.46,154.382c-5.72,18.741 -10.71,32.73 -14.99,41.968c-4.27,9.238 -10.6,18.397 -18.98,27.479c-12.08,6.776 -22.24,10.773 -30.48,11.991c-8.24,1.218 -21.73,0.053 -40.47,-3.497c-6.56,-3.004 -10.89,-5.836 -12.99,-8.494c-7.77,-9.856 -11.03,-22.357 -14.99,-28.978c-5.56,-9.299 -8.89,-17.959 -9.99,-25.98l-25.98,-84.435l-112.413,-3.498l-10.492,85.435c-5.735,23.22 -11.897,40.207 -18.486,50.961c-6.589,10.755 -14.916,17.416 -24.981,19.985z" clip-rule="evenodd" fill-rule="evenodd"/>
  <path id="svg_2" fill="white" d="m902.25,510.29077c-2.035,-0.367 -3.535,-0.549 -4.5,-0.544c-3.705,0.015 -6.729,-0.176 -8.5,-3c-2.463,-3.929 -1.797,-8.596 2,-14l10.5,-3.5l5,0l36.5,1.5l11.5,-1.5l40.5,-1.5c4.333,2 5.83,5.833 4.5,11.5c-1.333,5.666 -5,9.166 -11,10.5l-12,0.544l-81,371.406l-52,0c8.902,-58.34 16.068,-102.226 21.5,-131.641c5.432,-29.416 17.765,-109.337 37,-239.765zm127,0c-0.08,-1.18 -3.25,-1.362 -9.5,-0.544c-5.33,-2.667 -7.5,-6.834 -6.5,-12.5c1,-5.667 3.5,-8.667 7.5,-9l7.5,1l23,0l23,1.5l25.5,-2.5c8,0.666 12,4.333 12,11c0,3.789 -1.28,5.756 -3,7.5c-0.87,0.882 -2.54,1.882 -5,3l-8,0.544l20.5,371.906l-54,0c-7.27,-66.88 -11.94,-113.761 -14,-140.651c-2.45,-32.026 -16.32,-191.213 -19,-231.255z" clip-rule="evenodd" fill-rule="evenodd"/>
  <path id="svg_3" stroke-width="1.5" stroke="#263E4B" d="m902.25,509.78977l74.5,0l-81,371.407l-52,0c8.902,-58.34 16.068,-102.226 21.5,-131.642c5.432,-29.415 17.765,-109.337 37,-239.765zm127,0l66.5,0l20.5,371.907l-54,0c-7.27,-66.88 -11.94,-113.761 -14,-140.651c-2.45,-32.026 -16.32,-191.213 -19,-231.256z" clip-rule="evenodd" fill-rule="evenodd"/>
  <path id="svg_4" fill="#BAD9EA" d="m948.75,178.42377l-56.373,0.265c-28.125,0.132 -51.249,22.21 -52.682,50.298l-0.945,18.514c0.881,-9.52 2.047,-16.194 3.5,-20.023c2.306,-6.076 4.969,-9.572 8,-13.514c4.582,-5.962 9.772,-10.992 14,-12.014c9.667,-2.336 20.5,5.173 32.5,22.525c2.01,-3.887 3.677,-6.89 5,-9.01c2.642,-4.231 5.455,-8.8 10.5,-13.515c10,-9.343 22.167,-17.185 36.5,-23.526z" clip-rule="evenodd" fill-rule="evenodd"/>
  <path id="svg_5" fill="#BAD9EA" d="m902.75,488.26677c5.143,1.876 14.81,2.71 29,2.502c7.727,-0.113 21.636,-2.419 33.5,-3.003c6.616,-0.325 16.616,-0.325 30,0l11.5,-30.534l11,0l3.5,30.534c11.7,0.732 20.03,1.232 25,1.502c10.68,0.579 19.56,1.001 26.5,1.001c11.78,0 20.44,-0.835 26,-2.503l-25.5,-142.658l-118.5,4.505c-1.549,21.724 -7.215,45.583 -17,71.579c-2.085,5.541 -2.419,12.544 -4.5,19.522c-3.172,10.633 -6.665,20.918 -10.5,28.031c-3.638,6.748 -10.305,13.255 -20,19.522z" clip-rule="evenodd" fill-rule="evenodd"/>
  <path id="svg_6" fill="#263E4B" d="m1097.96,488.09877l-11.45,-66.78c-0.07,-0.408 0.21,-0.797 0.61,-0.867c0.41,-0.07 0.8,0.205 0.87,0.613l11.39,66.451l1.62,0c6.35,0 11.5,5.154 11.5,11.512c0,6.359 -5.15,11.513 -11.5,11.513l-78.9,0c-5.63,0 -10.19,-4.569 -10.19,-10.206c0,-0.472 0.03,-0.943 0.1,-1.41l0.6,-4.299c0.54,-3.868 3.53,-6.894 7.32,-7.517l-2.86,-29.126l-9.8,0l-10.992,29.183c3.066,0.709 5.242,3.574 4.992,6.811c-0.02,0.28 -0.06,0.557 -0.12,0.831l-0.92,4.374c-1.379,6.618 -7.209,11.359 -13.963,11.359l-91.469,0c-4.215,0 -7.632,-3.421 -7.632,-7.64c0,-0.799 0.125,-1.592 0.371,-2.352c0.667,-2.064 1.499,-4.73 2.496,-7.997c0.121,-0.397 0.54,-0.62 0.936,-0.499c0.396,0.121 0.619,0.541 0.498,0.938c-0.999,3.274 -1.833,5.948 -2.503,8.02c-0.198,0.611 -0.298,1.248 -0.298,1.89c0,3.39 2.745,6.138 6.132,6.138l91.469,0c6.044,0 11.261,-4.242 12.499,-10.165l0.915,-4.373c0.044,-0.211 0.074,-0.424 0.09,-0.639c0.211,-2.735 -1.829,-5.125 -4.558,-5.346c-6.204,-0.122 -10.594,-0.184 -13.165,-0.187c-6.961,-0.008 -26.591,1.132 -30.698,1.683c-9.323,1.249 -14.26,1.429 -22.324,1.157c-0.262,-0.009 -0.262,-0.009 -0.525,-0.018c-2.881,-0.098 -4.259,-0.132 -6.097,-0.132c-6.67,0 -11.652,-0.167 -14.959,-0.504c-3.88,-0.395 -5.637,-0.948 -5.438,-2.354l1.486,0.211c0.015,-0.109 -0.015,-0.19 -0.035,-0.227c0.105,0.081 0.321,0.181 0.639,0.281c0.736,0.232 1.909,0.433 3.5,0.595c3.245,0.331 8.184,0.497 14.807,0.497c1.86,0 3.251,0.034 6.148,0.132c0.262,0.009 0.262,0.009 0.524,0.018c7.986,0.269 12.842,0.092 22.075,-1.145c4.178,-0.56 23.874,-1.703 30.899,-1.695c2.512,0.002 6.74,0.062 12.685,0.177l11.315,-30.038c0.11,-0.292 0.39,-0.486 0.7,-0.486l11,0l6.5,0c0.41,0 0.75,0.336 0.75,0.751c0,0.415 -0.34,0.751 -0.75,0.751l-5.67,0l2.87,29.209c3.31,0.546 9.93,0.824 19.8,0.824c3.71,0 21.85,1.014 27.07,1.505c5.95,0.559 15.84,0.087 29.64,-1.422zm0.82,0.918l0.05,0.496c-14.27,1.581 -24.48,2.084 -30.65,1.503c-5.17,-0.487 -23.27,-1.498 -26.93,-1.498c-10.56,0 -17.42,-0.314 -20.65,-0.953l0.01,-0.033c-3.35,0.348 -6.05,2.943 -6.52,6.302l-0.6,4.298c-0.05,0.399 -0.08,0.801 -0.08,1.203c0,4.807 3.89,8.704 8.69,8.704l78.9,0c5.52,0 10,-4.482 10,-10.011c0,-5.529 -4.48,-10.011 -10,-10.011l-2.22,0z"/>
  <path id="svg_7" fill="#263E4B" d="m1011.46,138.62977l-2.91,30.764c23.7,8.065 38.86,15.068 45.52,21.07c8.65,7.784 30.81,52.771 42.16,82.295c3.43,8.916 8.75,14.564 21.65,25.017l1.08,0.879c12.96,10.498 18.25,16.166 21.5,25.175c5,13.909 15.02,17.251 30.47,10.085c0.38,-0.174 0.83,-0.01 1,0.366c0.17,0.376 0.01,0.823 -0.37,0.997c-16.21,7.517 -27.19,3.851 -32.52,-10.939c-3.11,-8.664 -8.27,-14.188 -21.02,-24.517l-1.09,-0.879c-13.1,-10.614 -18.54,-16.401 -22.1,-25.645c-11.25,-29.265 -33.37,-74.161 -41.76,-81.717c-6.52,-5.869 -21.73,-12.875 -45.56,-20.955c-0.33,-0.112 -0.54,-0.436 -0.51,-0.782l2.96,-31.214l-8.71,0c-0.41,0 -0.75,-0.336 -0.75,-0.751c0,-0.414 0.34,-0.751 0.75,-0.751l9.52,0c0.01,0 0.01,0 0.02,0l16.65,0c10.32,0 16.31,-4.2 19.44,-12.69c2.51,-6.822 3.12,-14.707 3.12,-31.563l0,-11.48c0,-0.159 0,-0.288 0,-0.58c0.01,-5.581 -0.25,-8.797 -1.45,-13.7c-0.02,-0.029 -0.06,-0.065 -0.1,-0.107c-0.12,-0.117 -0.28,-0.27 -0.49,-0.458l-71.503,0c-0.414,0 -0.75,-0.336 -0.75,-0.75c0,-0.415 0.336,-0.751 0.75,-0.751l71.793,0c0.18,0 0.36,0.067 0.5,0.188c0.88,0.785 1.15,1.049 1.23,1.384c1.26,5.121 1.53,8.453 1.52,14.196c0,0.292 0,0.42 0,0.578l0,11.48c0,17.046 -0.62,25.03 -3.22,32.083c-3.34,9.078 -9.89,13.672 -20.84,13.672l-15.98,0zm219.07,269.336l1.44,0.424c-12.56,42.714 -25.91,67.614 -40.19,74.741c-22.49,11.221 -49.98,12.084 -72.36,1.095c-2.96,-1.452 -5.28,-3.481 -7.64,-6.598c-1.68,-2.222 -3.33,-4.896 -5.98,-9.538c-0.69,-1.214 -3.33,-5.89 -3.72,-6.575c-1.66,-2.924 -3.09,-5.412 -4.61,-8.006c-2.09,-3.552 -5.06,-11.394 -8.93,-23.58l1.42,-0.455c3.84,12.077 6.79,19.852 8.8,23.273c1.53,2.601 2.97,5.097 4.63,8.027c0.39,0.688 3.02,5.361 3.71,6.572c2.62,4.588 4.25,7.22 5.88,9.376c2.22,2.94 4.37,4.814 7.1,6.156c21.95,10.775 48.95,9.928 71.03,-1.091c13.78,-6.875 26.97,-31.496 39.42,-73.821z"/>
  <path id="svg_8" fill="#BAD9EA" d="m1024.75,176.42177l9,3.504c6.33,19.355 11.17,35.873 14.5,49.555c3.33,13.681 5.5,34.037 6.5,61.067l-12.5,-3.504c1,-21.69 -0.83,-40.878 -5.5,-57.563c-2.03,-7.268 -6.03,-24.954 -12,-53.059zm-76.5,2.002l8.5,-3.504c2,14.794 3,26.474 3,35.039c0,8.565 0,17.241 0,26.029l-13,18.52c2,-6.006 3,-19.521 3,-40.545c0,-21.023 -0.5,-32.869 -1.5,-35.539z" clip-rule="evenodd" fill-rule="evenodd"/>
  <path id="svg_9" fill="#263E4B" d="m1024.52,176.57777l-0.29,-1.359l10.62,4.136l0.11,0.337c6.34,19.372 11.18,35.908 14.52,49.611c3.35,13.741 5.52,34.141 6.52,61.218l0.04,1.028l-14.07,-3.943l0.03,-0.596c1,-21.615 -0.83,-40.724 -5.47,-57.327c-2.04,-7.288 -6.04,-24.982 -12.01,-53.105zm13.45,52.7c4.65,16.614 6.5,35.682 5.56,57.204l10.93,3.066c-1.01,-26.472 -3.16,-46.44 -6.44,-59.889c-3.31,-13.582 -8.1,-29.97 -14.37,-49.162l-7.38,-2.871c5.81,27.299 9.71,44.524 11.7,51.652zm-89.922,-50.59l-0.255,-0.681l10.07,-4.151l0.13,0.964c2.005,14.824 3.007,26.535 3.007,35.139l0,26.266l-16.081,22.911l1.62,-4.865c1.965,-5.902 2.961,-19.368 2.961,-40.307c0,-20.858 -0.501,-32.738 -1.452,-35.276zm2.952,35.276c0,17.357 -0.678,29.613 -2.051,36.819l10.551,-15.032l0,-25.792c0,-8.339 -0.954,-19.666 -2.864,-33.973l-6.976,2.875c0.907,3.759 1.34,15.362 1.34,35.103z"/>
  <path id="svg_10" fill="#263E4B" d="m1010.53,178.63677l1.44,-0.426l68.02,229.826c3.88,20.313 17.89,30.424 42.26,30.424c24.38,0 44.42,-16.29 60.15,-49.014l1.35,0.651c-15.95,33.196 -36.46,49.865 -61.5,49.865c-25.05,0 -39.71,-10.578 -43.72,-31.572l-68,-229.754zm36.98,185.878l1.48,0.229c-7.72,50.055 -22.22,75.219 -43.74,75.219c-17.407,0 -28.989,-54.215 -33.749,-157.89c-0.898,-19.548 -1.398,-52.927 -1.501,-100.143l1.5,-0.004c0.103,47.196 0.603,80.557 1.499,100.078c4.699,102.325 16.263,156.457 32.251,156.457c20.48,0 34.64,-24.557 42.26,-73.946z"/>
  <path id="svg_11" fill="#263E4B" d="m1122.23,339.89277l52.39,-5.506l3.1,29.483l-52.39,5.507l-3.1,-29.484zm-48.59,-52.854l-4.93,-46.846c1.98,-5.065 7.18,-8.041 15.62,-8.928c8.43,-0.886 14.14,0.943 17.13,5.487l4.92,46.845l-32.74,3.442zm137.52,-14.455l-32.74,3.442l-4.93,-46.846c1.98,-5.065 7.18,-8.041 15.62,-8.927c8.43,-0.887 14.14,0.942 17.13,5.486l4.92,46.845z" clip-rule="evenodd" fill-rule="evenodd"/>
  <path id="svg_12" fill="white" d="m1069.52,339.05577l-7.61,-72.398c3.19,-7.843 11.53,-12.473 25.03,-13.891c13.49,-1.419 22.61,1.376 27.36,8.385l7.61,72.397l-52.39,5.507zm157.17,-16.52l-52.39,5.507l-7.61,-72.398c3.19,-7.842 11.53,-12.473 25.03,-13.891c13.49,-1.419 22.61,1.376 27.36,8.385l7.61,72.397z" clip-rule="evenodd" fill-rule="evenodd"/>
  <path id="svg_13" stroke-linejoin="round" stroke-linecap="round" stroke-width="1.5" stroke="#263E4B" fill="white" d="m1069.19,339.25777l-7.61,-72.398c3.19,-7.842 11.53,-12.473 25.03,-13.891c13.49,-1.418 22.61,1.376 27.36,8.385l7.61,72.398l-52.39,5.506zm157.17,-16.519l-52.39,5.506l-7.61,-72.398c3.19,-7.842 11.53,-12.473 25.03,-13.891c13.49,-1.418 22.61,1.377 27.36,8.385l7.61,72.398z" clip-rule="evenodd" fill-rule="evenodd"/>
  <path id="svg_14" fill="white" d="m1067.91,419.29677l-8.81,-83.754c4.56,-9.164 16.11,-14.721 34.67,-16.671c18.55,-1.95 31.01,1.083 37.37,9.099l8.8,83.755l-72.03,7.571zm176.81,-18.584l-72.03,7.571l-8.81,-83.754c4.56,-9.164 16.11,-14.721 34.67,-16.671c18.55,-1.95 31.01,1.083 37.37,9.1l8.8,83.754z" clip-rule="evenodd" fill-rule="evenodd"/>
  <path id="svg_15" fill="#263E4B" d="m1067.75,420.06877c-0.41,0.043 -0.78,-0.256 -0.82,-0.669l-8.8,-83.754c-0.02,-0.142 0.01,-0.285 0.07,-0.413c4.69,-9.443 16.47,-15.109 35.26,-17.083c18.78,-1.974 31.48,1.118 38.04,9.379c0.09,0.112 0.14,0.247 0.16,0.389l8.8,83.754c0.04,0.413 -0.26,0.782 -0.67,0.825l-72.04,7.572zm71.14,-8.987l-8.7,-82.788c-6.21,-7.646 -18.38,-10.563 -36.58,-8.651c-18.19,1.913 -29.49,7.296 -33.97,16.066l8.7,82.788l70.55,-7.415zm106.35,-10.423c0.04,0.413 -0.26,0.782 -0.67,0.825l-72.04,7.572c-0.41,0.043 -0.78,-0.256 -0.82,-0.669l-8.8,-83.754c-0.02,-0.142 0.01,-0.285 0.07,-0.413c4.7,-9.443 16.48,-15.109 35.26,-17.083c18.78,-1.974 31.48,1.118 38.04,9.379c0.09,0.112 0.14,0.247 0.16,0.389l8.8,83.754zm-1.57,-0.59l-8.7,-82.788c-6.21,-7.646 -18.38,-10.563 -36.57,-8.651c-18.2,1.913 -29.49,7.296 -33.98,16.066l8.7,82.788l70.55,-7.415z"/>
  <path id="svg_16" fill="#263E4B" d="m1104.98,427.82077c-19.89,2.09 -36.59,-1.715 -37.31,-8.499c-0.71,-6.785 14.84,-13.98 34.73,-16.071c19.89,-2.09 36.6,1.715 37.31,8.499c0.72,6.785 -14.83,13.98 -34.73,16.071zm104.79,-11.013c-19.9,2.091 -36.6,-1.715 -37.31,-8.499c-0.72,-6.785 14.83,-13.98 34.72,-16.071c19.9,-2.09 36.6,1.715 37.31,8.499c0.72,6.785 -14.83,13.98 -34.72,16.071z" clip-rule="evenodd" fill-rule="evenodd"/>
  <path id="svg_17" fill="#263E4B" d="m1049.97,353.21177c6.29,-0.662 10.85,-6.298 10.19,-12.591c-0.66,-6.292 -6.3,-10.857 -12.59,-10.196c-6.29,0.661 -10.85,6.297 -10.19,12.59c0.66,6.292 6.3,10.858 12.59,10.197zm-0.16,-1.494c-5.47,0.575 -10.36,-3.392 -10.94,-8.86c-0.57,-5.467 3.39,-10.366 8.86,-10.94c5.46,-0.574 10.36,3.392 10.94,8.86c0.57,5.467 -3.39,10.366 -8.86,10.94z"/>
  <path id="svg_18" fill="#263E4B" d="m809.889,365.60077l10.105,-3.679c0.389,-0.141 0.819,0.06 0.961,0.449c0.141,0.39 -0.06,0.821 -0.449,0.963l-8.984,3.27l9.109,5.389c0.357,0.21 0.475,0.671 0.265,1.028c-0.211,0.357 -0.671,0.475 -1.028,0.264l-10.171,-6.017l-0.191,0.07c-0.088,0.032 -0.179,0.047 -0.268,0.045c-18.363,24.481 -22.611,48.633 -12.794,72.545c9.569,23.312 13.87,31.632 21.12,38.813c8.358,8.279 19.868,12.581 39.768,14.786c37.529,4.158 59.448,-8.293 69.21,-36.043c6.1,-17.339 9.589,-29.481 10.464,-36.386c0.052,-0.411 0.427,-0.702 0.838,-0.65c0.411,0.052 0.702,0.428 0.65,0.839c-0.893,7.042 -4.404,19.261 -10.537,36.695c-10.003,28.437 -32.593,41.269 -70.79,37.038c-20.206,-2.239 -32.02,-6.656 -40.658,-15.212c-7.449,-7.378 -11.801,-15.798 -21.453,-39.309c-10.083,-24.563 -5.636,-49.402 13.289,-74.424c2.037,-25.407 11.249,-49.186 27.628,-71.326c16.329,-22.071 33.156,-38.665 50.488,-49.775c11.715,-31.072 28.724,-51.881 51.035,-62.381c11.116,-5.231 19.459,-8.709 25.043,-10.436c3.74,-1.156 6.402,-1.582 7.891,-1.112l2.571,-47.222c0.022,-0.414 0.376,-0.731 0.79,-0.711c0.413,0.025 0.73,0.379 0.708,0.793l-2.675,49.124c-0.053,0.972 -1.499,0.933 -1.499,-0.041c0,-0.919 -2.314,-0.951 -7.343,0.604c-5.503,1.702 -13.79,5.156 -24.848,10.36c-21.98,10.344 -38.768,30.923 -50.357,61.784c-0.057,0.153 -0.162,0.282 -0.298,0.369c-17.239,11.004 -34.008,27.515 -50.301,49.538c-16.087,21.745 -25.18,45.06 -27.289,69.958z"/>
  <path id="svg_19" fill="white" d="m971.25,166.91177l-7.025,17.788c-0.405,1.027 0.098,2.189 1.126,2.595c0.404,0.159 0.85,0.183 1.269,0.067l30.003,-8.324l19.857,7.072c1.04,0.371 2.18,-0.172 2.55,-1.213c0.23,-0.622 0.13,-1.314 -0.26,-1.848l-11.02,-15.136c-2.04,1.779 -6.42,2.669 -13.133,2.669c-6.712,0 -14.501,-1.223 -23.367,-3.67z" clip-rule="evenodd" fill-rule="evenodd"/>
  <path id="svg_20" fill="#263E4B" d="m996.156,179.58477l-28.835,7.999c-0.576,0.16 -1.189,0.128 -1.745,-0.092c-1.413,-0.559 -2.105,-2.159 -1.547,-3.573l7.024,-17.784c0.14,-0.357 0.527,-0.55 0.896,-0.448c8.806,2.431 16.53,3.644 23.168,3.644c6.543,0 10.773,-0.861 12.643,-2.485c0.33,-0.289 0.84,-0.232 1.1,0.124l11.01,15.131c0.53,0.735 0.67,1.688 0.37,2.544c-0.51,1.433 -2.08,2.181 -3.52,1.671l-19.061,-6.791c0.034,0.285 0.073,0.619 0.117,1.003c0.188,1.629 0.469,4.153 0.845,7.575c0.75,6.842 1.879,17.271 3.379,31.287c0.04,0.412 -0.26,0.782 -0.67,0.826c-0.41,0.044 -0.78,-0.254 -0.83,-0.666c-1.496,-14.015 -2.621,-24.443 -3.371,-31.283c-0.374,-3.419 -0.656,-5.942 -0.843,-7.567c-0.05,-0.437 -0.094,-0.809 -0.13,-1.115zm-0.019,-8.759c0.165,0.643 0.322,1.36 0.472,2.143c0.246,1.275 0.438,2.502 0.664,4.121l0.096,0.686c0.003,0.019 0.005,0.037 0.008,0.055l19.853,7.07c0.65,0.232 1.36,-0.108 1.59,-0.759c0.14,-0.389 0.08,-0.822 -0.16,-1.156l-10.57,-14.514c-2.26,1.51 -6.23,2.274 -11.953,2.354zm-0.237,7.271c-0.005,-0.035 -0.01,-0.072 -0.016,-0.111l-0.096,-0.687c-0.223,-1.596 -0.412,-2.802 -0.652,-4.047c-0.175,-0.91 -0.358,-1.722 -0.549,-2.422c-6.497,-0.061 -13.958,-1.234 -22.387,-3.517l-6.776,17.158c-0.254,0.643 0.061,1.37 0.703,1.624c0.253,0.1 0.532,0.115 0.794,0.042l28.979,-8.04z"/>
  <path id="svg_21" fill="white" d="m893.75,338.74977c41.492,-66.209 65.325,-102.75 71.5,-109.622c4.819,-5.363 13.073,-5.804 18.437,-0.985c4.013,3.607 5.395,9.311 3.476,14.354l-14.913,39.19" clip-rule="evenodd" fill-rule="evenodd"/>
  <path id="svg_22" fill="#263E4B" d="m894.211,339.50077c41.445,-66.133 65.293,-102.697 71.422,-109.518c4.545,-5.058 12.324,-5.47 17.376,-0.92c3.781,3.404 5.08,8.786 3.27,13.543l-14.904,39.166l1.402,0.534l14.903,-39.166c2.031,-5.337 0.574,-11.374 -3.667,-15.193c-5.668,-5.105 -14.396,-4.643 -19.495,1.032c-6.22,6.922 -30.038,43.439 -71.578,109.724l1.271,0.798z"/>
  <path id="svg_23" fill="#263E4B" d="m986.432,95.36077c-1.167,-0.344 -2.403,-0.529 -3.682,-0.529c-7.18,0 -13,5.827 -13,13.014c0,6.107 4.202,11.232 9.869,12.635l-0.588,12.109c-0.157,3.23 -2.844,5.754 -6.077,5.709l-15.43,-0.217c-0.99,-0.014 -1.973,-0.161 -2.923,-0.438c-5.832,-1.699 -9.183,-7.805 -7.484,-13.638l16.958,-58.206l2.008,0l0.008,-0.011l2.352,0.011l8.807,0l0.002,0.042l20.917,0.101c-2.415,11.108 -4.584,18.531 -6.507,22.268c-1.372,2.669 -3.116,5.053 -5.23,7.15zm71.068,-29.561c1.96,8.342 -1.08,12.514 -9.14,12.514c-8.07,0 -20.16,-4.172 -36.28,-12.514l45.42,0z" clip-rule="evenodd" fill-rule="evenodd"/>
  <path id="svg_24" fill="white" d="m872.437,356.22277l67.892,-60.494c9.883,-8.807 22.704,-13.596 35.941,-13.425l77.31,0.995c10.56,0.136 19.19,8.464 19.7,19.012c0.49,9.984 -7.21,18.471 -17.2,18.956c-0.22,0.011 -0.45,0.018 -0.68,0.021l-65.449,0.716c-4.004,0.043 -7.215,3.325 -7.171,7.329c0,0.003 0,0.005 0,0.008c0.049,4.054 3.29,7.346 7.343,7.457l67.557,1.851c9.21,0.253 16.55,7.762 16.6,16.971c0.05,9.075 -7.27,16.47 -16.34,16.518c-0.03,0 -0.06,0 -0.09,0l-64.399,0c-3.96,0 -7.171,3.211 -7.171,7.172c0,0.029 0,0.058 0,0.086c0.052,4.356 2.83,8.21 6.944,9.639l41.236,14.315c7.14,2.477 10.91,10.27 8.43,17.406c-0.11,0.317 -0.23,0.629 -0.36,0.937c-3.3,7.644 -11.9,11.491 -19.8,8.855l-67.037,-22.37l-36.267,24.205c-18.6,12.414 -43.741,7.399 -56.154,-11.201c-1.168,-1.749 -2.197,-3.586 -3.079,-5.496c-3.159,-6.837 -4.144,-16.632 -2.956,-29.386c1.08,-11.588 6.511,-22.335 15.2,-30.077z" clip-rule="evenodd" fill-rule="evenodd"/>
  <path id="svg_25" fill="#263E4B" d="m869.736,427.31677l12.646,-8.139c-4.339,-4.148 -7.843,-9.244 -10.803,-15.169c-4.289,-8.588 -2.879,-25.011 4.15,-49.373l-2.395,2.134c-8.561,7.628 -13.912,18.224 -14.972,29.648c-1.17,12.61 -0.196,22.265 2.895,28.953c0.861,1.865 1.865,3.659 3.003,5.368c1.619,2.432 3.459,4.627 5.476,6.578zm1.135,1.055c13.179,11.781 33.114,13.669 48.499,3.401l3.499,-2.335c-13.903,2.513 -25.212,0.461 -34.274,-5.361c-1.806,-1.16 -3.492,-2.445 -5.072,-3.848l-12.652,8.143zm5.657,-76.458c0.001,-0.004 0.002,-0.008 0.004,-0.013c0.085,-0.286 0.325,-0.483 0.601,-0.527l63.085,-56.211c10.021,-8.928 23.014,-13.783 36.427,-13.61l77.345,0.995c10.94,0.141 19.89,8.782 20.42,19.727c0.51,10.397 -7.5,19.236 -17.89,19.742c-0.23,0.012 -0.47,0.019 -0.71,0.021l-65.476,0.717c-3.585,0.039 -6.46,2.98 -6.421,6.57l0,0.007c0.044,3.651 2.96,6.615 6.606,6.715l67.581,1.852c9.6,0.263 17.26,8.103 17.31,17.717c0.05,9.49 -7.59,17.223 -17.07,17.273l-0.09,0l-64.424,0c-3.542,0 -6.413,2.875 -6.413,6.421c0,0.039 0,0.039 0,0.077c0.048,4.039 2.622,7.613 6.433,8.936l41.254,14.322c7.52,2.609 11.5,10.824 8.89,18.348c-0.12,0.337 -0.25,0.67 -0.39,0.998c-3.46,8.003 -12.45,12.031 -20.71,9.273l-66.703,-22.257l-35.985,24.016c-18.951,12.648 -44.556,7.521 -57.19,-11.451c-1.181,-1.773 -2.223,-3.636 -3.117,-5.57c-3.219,-6.969 -4.219,-16.873 -3.026,-29.723c1.095,-11.803 6.623,-22.75 15.468,-30.631l4.191,-3.734zm1.316,0.838c-7.507,25.285 -9.119,42.185 -4.923,50.586c4.146,8.301 9.368,14.903 16.484,19.475c9.264,5.952 20.992,7.822 35.687,4.653c0.205,-0.044 0.409,0 0.571,0.108l30.302,-20.224l67.395,22.49c7.52,2.511 15.72,-1.157 18.86,-8.445c0.13,-0.294 0.25,-0.592 0.35,-0.894c2.34,-6.741 -1.23,-14.1 -7.96,-16.438l-41.255,-14.321c-4.409,-1.531 -7.386,-5.665 -7.442,-10.337c0,-0.047 0,-0.047 0,-0.095c0,-4.375 3.543,-7.922 7.913,-7.922l64.424,0l0.08,-0.001c8.65,-0.045 15.63,-7.103 15.58,-15.763c-0.04,-8.803 -7.06,-15.983 -15.85,-16.224l-67.582,-1.852c-4.451,-0.122 -8.011,-3.741 -8.065,-8.198l0,-0.009c-0.048,-4.418 3.491,-8.04 7.905,-8.088l65.482,-0.716c0.21,-0.003 0.43,-0.009 0.65,-0.02c9.56,-0.466 16.93,-8.6 16.46,-18.169c-0.49,-10.152 -8.79,-18.168 -18.94,-18.298l-77.344,-0.996c-13.039,-0.168 -25.67,4.552 -35.41,13.231l-63.372,56.467z"/>
  <path id="svg_26" fill="white" d="m1210.83,300.77577l0.01,2.035c0.05,10.381 8.47,18.771 18.86,18.771l14.22,0c-11.75,0.904 -19.42,4.742 -23,11.513c-5.63,10.664 -1.55,23.875 9.12,29.508c3.14,1.66 6.64,2.527 10.19,2.527l6.19,0l-1.69,0.83c-11.89,5.839 -16.81,20.216 -10.97,32.113c0.35,0.718 0.74,1.417 1.16,2.096c5.69,7.918 16.72,9.728 24.63,4.043c0.53,-0.379 1.04,-0.788 1.52,-1.224l11.04,-9.945c6.1,-5.492 8.96,-13.717 7.6,-21.808c-0.09,-0.589 -0.19,-1.122 -0.29,-1.6c-0.57,-2.918 -2.57,-7.256 -6,-13.014c2.34,-4.672 3,-10.345 2,-17.019c-1,-6.674 -3.83,-12.514 -8.5,-17.519c2.28,-5.827 2.61,-12.334 1,-19.522c-0.63,-2.846 -1.51,-5.272 -2.64,-7.277c-2.06,-3.678 -5.78,-6.125 -9.98,-6.565l-27.91,-2.931c-8.24,-0.865 -15.62,5.113 -16.48,13.352c-0.06,0.543 -0.08,1.09 -0.08,1.636z" clip-rule="evenodd" fill-rule="evenodd"/>
  <path id="svg_27" fill="#263E4B" d="m1246.63,363.87877l26.59,-8.378c2.14,-4.47 2.75,-9.894 1.79,-16.288c-0.98,-6.505 -3.73,-12.192 -8.27,-17.078l0,0.198l-23.05,-0.452c-11.17,0.97 -18.4,4.672 -21.78,11.064c-5.43,10.293 -1.51,23.048 8.78,28.489c3.03,1.606 6.41,2.445 9.84,2.445l6.1,0zm0.4,1.45l-1.66,0.812c-11.5,5.647 -16.26,19.563 -10.62,31.083c0.35,0.701 0.72,1.385 1.11,2.006c5.45,7.59 16.01,9.32 23.59,3.865c0.5,-0.361 0.98,-0.749 1.44,-1.163l11.03,-9.935c5.92,-5.33 8.7,-13.318 7.37,-21.174c-0.09,-0.568 -0.19,-1.082 -0.28,-1.543c-0.53,-2.728 -2.4,-6.829 -5.6,-12.265l-26.38,8.314zm-2.78,-44.939l22.48,0.441c2.05,-5.559 2.32,-11.756 0.79,-18.606c-0.62,-2.776 -1.48,-5.131 -2.56,-7.067c-1.95,-3.469 -5.45,-5.778 -9.41,-6.193l-27.91,-2.931c-7.83,-0.822 -14.84,4.864 -15.66,12.7c-0.05,0.517 -0.08,1.035 -0.08,1.555l0.01,2.018c0.05,9.968 8.13,18.024 18.09,18.024l14.25,0l0,0.059zm-23.66,11.853c2.67,-5.054 7.5,-8.519 14.46,-10.41l-5.05,0c-10.78,0 -19.54,-8.724 -19.59,-19.519l-0.01,-2.018c0,-0.574 0.03,-1.148 0.09,-1.718c0.91,-8.661 8.66,-14.945 17.31,-14.037l27.91,2.931c4.44,0.465 8.37,3.057 10.56,6.951c1.16,2.072 2.06,4.563 2.71,7.474c1.6,7.148 1.31,13.66 -0.86,19.518c4.58,5.04 7.37,10.903 8.37,17.575c1,6.644 0.37,12.348 -1.89,17.096c3.34,5.653 5.3,9.941 5.89,12.903c0.09,0.475 0.19,1.003 0.28,1.584c1.41,8.363 -1.55,16.866 -7.85,22.54l-11.02,9.935c-0.5,0.451 -1.03,0.874 -1.57,1.267c-8.26,5.939 -19.76,4.055 -25.72,-4.25c-0.44,-0.706 -0.84,-1.433 -1.2,-2.18c-5.82,-11.882 -1.25,-26.158 10.18,-32.504l-3.06,0c-3.68,0 -7.3,-0.899 -10.55,-2.619c-11.01,-5.83 -15.22,-19.493 -9.39,-30.519zm9.39,-42.211c0.41,-0.006 0.75,0.325 0.76,0.74c0,0.415 -0.33,0.755 -0.74,0.761c-5.53,0.079 -7.98,3.386 -7.51,10.312c0.48,6.958 2.94,10.08 7.45,9.765c0.42,-0.029 0.77,0.283 0.8,0.696c0.03,0.414 -0.28,0.773 -0.69,0.802c-5.49,0.383 -8.53,-3.469 -9.05,-11.16c-0.53,-7.723 2.51,-11.825 8.98,-11.916zm7.17,42.816c0.41,-0.035 0.77,0.272 0.81,0.685c0.03,0.413 -0.27,0.777 -0.69,0.811c-5.51,0.464 -7.72,3.934 -6.77,10.811c0.96,6.907 3.64,9.85 8.12,9.221c0.41,-0.058 0.79,0.228 0.84,0.639c0.06,0.411 -0.23,0.79 -0.64,0.848c-5.44,0.765 -8.74,-2.866 -9.8,-10.502c-1.07,-7.666 1.68,-11.97 8.13,-12.513zm10.51,43.785c0.41,-0.085 0.8,0.176 0.89,0.582c0.08,0.406 -0.18,0.803 -0.58,0.888c-5.41,1.132 -7.19,4.846 -5.4,11.555c1.79,6.738 4.8,9.334 9.17,8.163c0.4,-0.107 0.81,0.131 0.92,0.532c0.11,0.4 -0.13,0.812 -0.53,0.919c-5.31,1.423 -9.03,-1.779 -11.01,-9.228c-2,-7.479 0.21,-12.087 6.54,-13.411z"/>
  <path id="svg_28" fill="white" d="m597.971,510.98477l24.279,253.559l12.5,0l-11.905,-256.001c-0.312,-6.717 -6.011,-11.91 -12.729,-11.598c-0.206,0.01 -0.411,0.025 -0.616,0.045c-7.045,0.687 -12.204,6.949 -11.529,13.995z" clip-rule="evenodd" fill-rule="evenodd"/>
  <path id="svg_29" fill="#263E4B" d="m597.224,510.58477l24.344,254.236l13.968,0l-11.942,-256.785c-0.331,-7.131 -6.381,-12.644 -13.513,-12.312c-0.218,0.01 -0.436,0.026 -0.654,0.047c-7.457,0.727 -12.917,7.355 -12.203,14.814zm25.708,252.736l-24.214,-252.879c-0.636,-6.635 4.221,-12.531 10.855,-13.178c0.192,-0.019 0.385,-0.033 0.578,-0.042c6.304,-0.293 11.652,4.58 11.945,10.884l11.868,255.215l-11.032,0z"/>
  <path id="svg_30" fill="#263E4B" d="m616.123,771.86277c-0.157,0.384 -0.595,0.568 -0.978,0.411c-0.384,-0.157 -0.567,-0.595 -0.41,-0.978c9.895,-24.194 15.655,-41.1 17.276,-50.675c0.069,-0.408 0.456,-0.683 0.864,-0.614c0.409,0.069 0.684,0.456 0.615,0.865c-1.645,9.716 -7.432,26.699 -17.367,50.991zm15.338,-84.652c0.132,0.392 -0.08,0.817 -0.472,0.949c-0.393,0.132 -0.818,-0.08 -0.95,-0.473c-4.404,-13.132 -13.301,-24.336 -26.716,-33.621c-0.34,-0.236 -0.425,-0.703 -0.19,-1.044c0.236,-0.34 0.703,-0.425 1.044,-0.19c13.67,9.462 22.773,20.925 27.284,34.379zm-10.76,53.18c-0.171,0.378 -0.615,0.545 -0.992,0.374c-0.378,-0.171 -0.545,-0.616 -0.374,-0.993c1.338,-2.952 2.234,-5.357 2.687,-7.204c6.225,-25.382 2.366,-43.93 -8.655,-57.113c-0.266,-0.318 -0.224,-0.791 0.094,-1.057c0.318,-0.265 0.791,-0.223 1.057,0.095c11.335,13.559 15.296,32.599 8.96,58.432c-0.478,1.951 -1.404,4.437 -2.777,7.466zm-17.679,-241.802c-0.052,-0.41 0.238,-0.786 0.649,-0.838c0.411,-0.053 0.787,0.238 0.839,0.649c6.499,50.947 30.889,77.891 73.275,81.054c0.413,0.031 0.723,0.391 0.692,0.804c-0.031,0.413 -0.391,0.723 -0.804,0.692c-43.148,-3.22 -68.067,-30.748 -74.651,-82.361zm10.981,-0.772c-0.039,-0.412 0.264,-0.778 0.676,-0.817c0.413,-0.039 0.779,0.263 0.818,0.676c4.26,44.862 24.54,68.25 60.976,70.931c0.413,0.031 0.723,0.39 0.693,0.803c-0.03,0.414 -0.39,0.724 -0.803,0.693c-37.222,-2.739 -58.035,-26.741 -62.36,-72.286z"/>
  <path id="svg_31" fill="#263E4B" d="m1013.25,99.83677c-1.93,0 -3.5,-1.793 -3.5,-4.004c0,-2.212 1.57,-4.005 3.5,-4.005c1.93,0 3.5,1.793 3.5,4.005c0,2.211 -1.57,4.004 -3.5,4.004zm31,0c-1.93,0 -3.5,-1.793 -3.5,-4.004c0,-2.212 1.57,-4.005 3.5,-4.005c1.93,0 3.5,1.793 3.5,4.005c0,2.211 -1.57,4.004 -3.5,4.004zm-37.93,-7.523c-0.27,0.316 -0.74,0.355 -1.05,0.087c-0.32,-0.268 -0.36,-0.741 -0.09,-1.058c0.12,-0.141 0.33,-0.376 0.63,-0.673c0.5,-0.492 1.05,-0.984 1.66,-1.444c1.78,-1.34 3.64,-2.153 5.52,-2.153c2.72,0 4.2,0.65 5.7,2.299c0.24,0.26 0.48,0.544 0.8,0.934c0.09,0.114 0.66,0.828 0.84,1.048c0.26,0.322 0.21,0.795 -0.11,1.057c-0.32,0.261 -0.79,0.213 -1.05,-0.108c-0.18,-0.226 -0.76,-0.941 -0.85,-1.051c-0.3,-0.369 -0.52,-0.634 -0.73,-0.869c-1.22,-1.335 -2.3,-1.808 -4.6,-1.808c-1.49,0 -3.07,0.689 -4.61,1.851c-0.56,0.416 -1.06,0.863 -1.51,1.31c-0.27,0.265 -0.46,0.468 -0.55,0.578zm32.02,-0.021c-0.26,0.326 -0.73,0.382 -1.05,0.126c-0.33,-0.257 -0.39,-0.729 -0.13,-1.055c0.11,-0.141 0.31,-0.376 0.59,-0.674c0.46,-0.493 0.98,-0.986 1.55,-1.447c1.66,-1.35 3.4,-2.17 5.17,-2.17c2.55,0 3.96,0.66 5.36,2.319c0.22,0.261 0.44,0.545 0.73,0.935c0.09,0.114 0.62,0.828 0.79,1.048c0.25,0.331 0.18,0.802 -0.15,1.052c-0.33,0.25 -0.8,0.185 -1.05,-0.146c-0.17,-0.225 -0.7,-0.941 -0.78,-1.051c-0.28,-0.368 -0.49,-0.633 -0.69,-0.868c-1.12,-1.324 -2.1,-1.787 -4.21,-1.787c-1.36,0 -2.81,0.681 -4.23,1.834c-0.51,0.415 -0.98,0.861 -1.39,1.307c-0.25,0.265 -0.42,0.467 -0.51,0.577zm-5.26,13.801l5.9,0l-6.6,-16.997c-0.15,-0.386 0.04,-0.821 0.42,-0.972c0.39,-0.15 0.82,0.041 0.97,0.428l7,18.02c0.2,0.492 -0.17,1.023 -0.69,1.023l-7,0c-0.42,0 -0.75,-0.336 -0.75,-0.751c0,-0.415 0.33,-0.751 0.75,-0.751zm-3.65,10.423c-0.37,0.196 -0.82,0.058 -1.02,-0.307c-0.19,-0.366 -0.05,-0.821 0.31,-1.017c2.72,-1.457 5.33,-1.457 7.75,0.022c0.35,0.216 0.46,0.678 0.25,1.032c-0.22,0.354 -0.68,0.465 -1.04,0.248c-1.94,-1.191 -3.99,-1.191 -6.25,0.022z" clip-rule="evenodd" fill-rule="evenodd"/>
  <path id="svg_32" fill="white" d="m477.75,556.29877l40,123.637l197.5,-26.53l0,-144.659l-195.109,39.065l-2.391,16.996l-12.796,-13.956l-27.204,5.447z" clip-rule="evenodd" fill-rule="evenodd"/>
  <path id="svg_33" fill="#263E4B" d="m505.507,549.88777c-0.177,-0.194 -0.443,-0.281 -0.7,-0.229l-27.204,5.447c-0.44,0.088 -0.705,0.54 -0.567,0.966l40,123.637c0.112,0.345 0.455,0.561 0.814,0.512l197.5,-26.529c0.372,-0.05 0.65,-0.368 0.65,-0.743l0,-144.66c0,-0.474 -0.433,-0.829 -0.897,-0.736l-195.109,39.065c-0.313,0.063 -0.552,0.316 -0.596,0.631l-2.169,15.423l-11.722,-12.784zm-0.82,1.325l12.51,13.645c0.429,0.467 1.207,0.225 1.296,-0.403l2.316,-16.47l193.691,-38.781l0,143.089l-196.229,26.358l-39.548,-122.24l25.964,-5.198z"/>
  <path id="svg_34" fill="white" d="m433.75,900.45677l66.5,0c26.194,-68.24 50.243,-110.85 72.148,-127.827c1.294,-1.003 -6.422,-12.119 -23.148,-33.348c10.842,8.583 18.342,14.089 22.5,16.519c1.958,1.144 2.125,-15.207 0.5,-49.054l17.904,54.257c6.817,-3.427 12.015,-5.829 15.596,-7.205c50.333,-19.355 91.667,29.528 124,146.658l676,0" clip-rule="evenodd" fill-rule="evenodd"/>
  <path id="svg_35" fill="#263E4B" d="m571.372,756.20977c0.713,0.416 1.357,0.03 1.708,-0.721c0.228,-0.488 0.403,-1.227 0.546,-2.245c0.271,-1.941 0.426,-4.962 0.468,-9.08c0.074,-7.285 -0.206,-18.025 -0.841,-32.224l16.189,49.06c0.144,0.435 0.64,0.641 1.049,0.435c6.796,-3.416 11.975,-5.809 15.528,-7.175c49.742,-19.127 90.779,29.407 123.008,146.157c0.09,0.33 0.386,0.55 0.723,0.55l676,0c0.41,0 0.75,-0.33 0.75,-0.75c0,-0.41 -0.34,-0.75 -0.75,-0.75l-675.429,0c-32.416,-117.11 -73.994,-166.159 -124.84,-146.607c-3.471,1.334 -8.43,3.615 -14.887,6.845l-17.632,-53.432c-0.273,-0.829 -1.503,-0.601 -1.461,0.271c0.812,16.91 1.176,29.447 1.093,37.605c-0.042,4.058 -0.194,7.025 -0.454,8.887c-0.107,0.764 -0.231,1.328 -0.359,1.673c-4.185,-2.506 -11.549,-7.928 -22.066,-16.253c-0.697,-0.552 -1.605,0.353 -1.054,1.052c8.354,10.603 14.457,18.679 18.304,24.222c1.913,2.756 3.265,4.881 4.051,6.364c0.378,0.713 0.618,1.266 0.721,1.644c0.02,0.073 0.033,0.135 0.041,0.185c-21.952,17.124 -45.938,59.624 -72.043,127.544l-65.985,0c-0.414,0 -0.75,0.34 -0.75,0.75c0,0.42 0.336,0.75 0.75,0.75l66.5,0c0.311,0 0.589,-0.19 0.7,-0.48c26.147,-68.12 50.144,-110.64 71.907,-127.503c1.23,-0.953 -0.276,-3.794 -4.66,-10.109c-3.252,-4.685 -8.094,-11.154 -14.527,-19.408c8.269,6.431 14.164,10.675 17.702,12.743z"/>
  <path id="svg_36" fill="#263E4B" d="m1020.98,17.99677l-28.409,0c-12.761,0 -23.122,10.293 -23.249,23.039l-16.863,24.336c-0.345,0.498 0.011,1.179 0.616,1.179l114.005,0c0.66,0 0.99,-0.796 0.54,-1.272l-24.4,-25.313c-0.16,-12.161 -10.06,-21.969 -22.24,-21.969zm-50.292,23.704c0.087,-0.126 0.133,-0.275 0.133,-0.428c0,-12.026 9.738,-21.774 21.75,-21.774l28.409,0c11.46,0 20.75,9.3 20.75,20.773c0,0.194 0.07,0.381 0.21,0.521l23.37,24.256l-110.801,0l16.179,-23.348z"/>
  <path id="svg_37" fill="#BAD9EA" d="m1042.17,40.77177l-72.42,1.001l-5,7.509l85.5,0l-8.08,-8.51z" clip-rule="evenodd" fill-rule="evenodd"/>
  <path id="svg_38" fill="#263E4B" d="m1042.66,39.52077l-72.42,1.001c-0.247,0.004 -0.477,0.129 -0.614,0.334l-5,7.509c-0.332,0.499 0.025,1.167 0.624,1.167l85.5,0c0.66,0 1,-0.79 0.54,-1.268l-8.08,-8.51c-0.14,-0.151 -0.34,-0.236 -0.55,-0.233zm6.34,8.509l-82.348,0l4.003,-6.012l71.695,-0.991l6.65,7.003z"/>
  <path id="svg_39" fill="white" d="m839.25,880.69677l-8.5,41.05l33,0l128,0c-7.382,-15.6 -16.048,-26.44 -26,-32.54c-9.952,-6.09 -28.118,-8.93 -54.5,-8.51l13.5,-70.07l-81,0.5l-1,52.55l-3.5,17.02z" clip-rule="evenodd" fill-rule="evenodd"/>
  <path id="svg_40" fill="white" d="m1056.75,874.69677l0,47.55l20,-0.5l128,0c-7.38,-15.6 -16.05,-26.44 -26,-32.54c-9.95,-6.09 -28.12,-8.93 -54.5,-8.51l12.5,-68.95l-87.5,-0.62l6.5,52.55l1,11.02z" clip-rule="evenodd" fill-rule="evenodd"/>
  <path id="svg_41" fill="#BAD9EA" d="m842.75,864.18677c7.656,1.23 13.656,6.07 18,14.51c4.344,8.44 6.678,19.78 7,34.04l-35,-0.5" clip-rule="evenodd" fill-rule="evenodd"/>
  <path id="svg_42" fill="#BAD9EA" d="m1056.75,864.18677c13.66,3.24 22.66,9.08 27,17.51c4.34,8.44 6.34,18.79 6,31.04l-33,-0.5l0,-48.05z" clip-rule="evenodd" fill-rule="evenodd"/>
  <path id="svg_43" fill="#263E4B" d="m867.622,810.72677l5.568,-38.398l-11.94,0l0,-1.5l12.157,0l2.976,-20.524l-10.633,0l0,-1.5l58,0l0,1.5l-11.626,0l-3.803,20.524l10.929,0l0,1.5l-11.207,0l-7.076,38.188l24.692,-0.15l-11.06,57.41l3.82,-10.47c0.16,-0.44 0.36,-0.87 0.597,-1.27c2.169,-3.69 6.922,-4.93 10.617,-2.76c0.622,0.36 1.183,0.82 1.661,1.36c2.508,2.84 2.246,7.16 -0.587,9.67l-17.776,15.75c3.346,-0.84 11.561,-2.95 23.63,-6.09c0.401,-0.1 0.81,0.14 0.915,0.54c0.104,0.4 -0.136,0.81 -0.537,0.91c-8.792,2.29 -15.133,3.93 -19.317,5c23.086,0.1 39.247,2.97 48.52,8.65c10.091,6.19 18.847,17.14 26.286,32.86l0.507,1.07l-163.106,0l8.686,-41.95l3.486,-16.95l1.013,-53.22l24.608,-0.15zm1.517,-0.01l14.505,-0.09l5.861,-38.298l-14.8,0l-5.566,38.388zm16.024,-0.1l14.277,-0.09l7.077,-38.198l-15.494,0l-5.86,38.288zm26.722,71.32c-0.064,0.02 -0.13,0.02 -0.197,0.02l-16.916,0.49c-0.414,0.02 -0.76,-0.31 -0.772,-0.72c-0.012,-0.42 0.314,-0.76 0.728,-0.78l15.107,-0.44l-18.289,-16.2c-2.832,-2.51 -3.095,-6.83 -0.587,-9.67c0.478,-0.54 1.039,-1 1.661,-1.36c3.695,-2.17 8.449,-0.93 10.617,2.76c0.237,0.4 0.437,0.83 0.597,1.27l7.293,20l0.234,-0.65l12.479,-64.78l-79.354,0.49l-0.975,51.25c15.569,4.63 24.495,20.65 24.978,47.87l116.632,0c-5.905,-9.64 -12.495,-16.69 -19.763,-21.14c-9.721,-5.95 -27.56,-8.77 -53.473,-8.41zm0.926,-4.88l-0.254,1.32l17.156,-15.19c2.212,-1.96 2.417,-5.34 0.458,-7.55c-0.374,-0.42 -0.811,-0.78 -1.297,-1.07c-2.981,-1.75 -6.815,-0.75 -8.564,2.23c-0.191,0.33 -0.353,0.67 -0.482,1.02l-7.017,19.24zm73.211,35.93l-152.588,0l-1.763,8.51l158.888,0c-1.463,-3.02 -2.975,-5.86 -4.537,-8.51zm-152.278,-1.5l33.245,0c-0.475,-26.47 -9.006,-41.86 -23.668,-46.36l-3.337,16.23l-6.24,30.13zm68.681,-53.67c-0.129,-0.35 -0.29,-0.69 -0.482,-1.02c-1.749,-2.98 -5.583,-3.98 -8.564,-2.23c-0.486,0.29 -0.923,0.65 -1.297,1.07c-1.959,2.21 -1.754,5.59 0.458,7.55l17.491,15.49l-7.606,-20.86zm8.173,-107.512l-16.204,0l-3.142,20.524l15.543,0l3.803,-20.524zm-17.722,0l-14.977,0l-2.976,20.524l14.812,0l3.141,-20.524z"/>
  <path id="svg_44" fill="#BAD9EA" d="m836.25,276.53177l-16.5,0l18,-28.531" clip-rule="evenodd" fill-rule="evenodd"/>
  <path id="svg_45" fill="#263E4B" d="m1066.83,810.47677l-5.54,-38.148l-9.54,0l0,-1.5l9.33,0l-2.98,-20.524l-9.35,0l0,-1.5l60.5,0l0,1.5l-12.92,0l2.07,20.524l11.35,0l0,1.5l-11.2,0l3.86,38.348l35.23,0.2l-11.41,66.13l7.19,-19.7c0.16,-0.44 0.36,-0.87 0.6,-1.27c2.16,-3.69 6.92,-4.93 10.61,-2.76c0.63,0.36 1.19,0.82 1.66,1.36c2.51,2.84 2.25,7.16 -0.58,9.67l-16.98,15.04c4.23,-1.07 11.34,-2.91 20.83,-5.38c0.4,-0.1 0.81,0.14 0.92,0.54c0.1,0.4 -0.14,0.81 -0.54,0.91c-8.79,2.29 -15.13,3.93 -19.31,4.99c23.35,0.07 39.67,2.94 49.01,8.66c10.09,6.19 18.85,17.14 26.29,32.86l0.5,1.07l-150.42,0l-0.01,-0.74l-0.49,-57.98l-7.12,-53.91l18.44,0.11zm1.51,0.01l15.06,0.08l-3.38,-38.238l-17.21,0l5.53,38.158zm16.57,0.09l15.99,0.09l-3.86,-38.338l-15.52,0l3.39,38.248zm-28.01,52.87c21.73,4.38 32.94,20.47 33.59,48.04l108.13,0c-5.9,-9.64 -12.49,-16.69 -19.76,-21.14c-9.69,-5.93 -27.43,-8.75 -53.19,-8.41c-0.1,0.02 -0.2,0.02 -0.3,0c-0.18,0.01 -0.36,0.01 -0.54,0.01c-0.04,0.01 -0.09,0.01 -0.14,0.01l-16.92,0.49c-0.41,0.02 -0.76,-0.31 -0.77,-0.72c-0.01,-0.42 0.31,-0.76 0.73,-0.78l15.11,-0.44l-18.29,-16.2c-2.84,-2.51 -3.1,-6.83 -0.59,-9.67c0.48,-0.54 1.04,-1 1.66,-1.36c3.7,-2.17 8.45,-0.93 10.62,2.76c0.23,0.4 0.43,0.83 0.59,1.27l7.66,20.99l11.37,-65.93l-85.75,-0.49l6.79,51.57zm0.11,1.55l0.4,46.49l31.57,0c-0.63,-26.73 -11.27,-42.15 -31.97,-46.49zm142.51,47.99l-142.1,0l0.07,8.51l146.57,0c-1.46,-3.02 -2.98,-5.86 -4.54,-8.51zm-84.09,-55.17c-0.13,-0.35 -0.3,-0.69 -0.49,-1.02c-1.75,-2.98 -5.58,-3.98 -8.56,-2.23c-0.49,0.29 -0.92,0.65 -1.3,1.07c-1.96,2.21 -1.75,5.59 0.46,7.55l17.49,15.49l-7.6,-20.86zm19.4,0l-7.61,20.86l17.49,-15.49c2.22,-1.96 2.42,-5.34 0.46,-7.55c-0.37,-0.42 -0.81,-0.78 -1.3,-1.07c-2.98,-1.75 -6.81,-0.75 -8.56,2.23c-0.19,0.33 -0.35,0.67 -0.48,1.02zm-40.01,-107.512l-15.25,0l1.82,20.524l15.5,0l-2.07,-20.524zm-16.76,0l-18.44,0l2.97,20.524l17.29,0l-1.82,-20.524z"/>
  <path id="svg_46" fill="#BAD9EA" d="m578.908,609.84177l1.476,9.318l-8.574,1.358l1.107,6.989l-11.022,1.745l-1.107,-6.988l-30.251,4.791l-1.476,-9.318l26.037,-31.398l11.023,-1.745l4.214,26.606l8.573,-1.358zm-37.967,6.013l18.371,-2.91l-2.466,-15.571l-15.905,18.481zm68.632,6.474c-17.024,2.697 -26.35,-3.87 -28.612,-18.154c-2.253,-14.223 4.597,-23.289 21.621,-25.985c16.962,-2.686 26.35,3.871 28.593,18.032c2.252,14.223 -4.64,23.421 -21.602,26.107zm-1.466,-9.257c9.675,-1.532 13.317,-7.073 12.045,-15.104c-1.262,-7.97 -6.429,-12.053 -16.104,-10.521c-9.675,1.533 -13.337,6.951 -12.065,14.982c1.282,8.092 6.448,12.176 16.124,10.643zm77.353,-20.106l1.475,9.318l-8.573,1.358l1.107,6.988l-11.022,1.746l-1.107,-6.988l-30.251,4.791l-1.476,-9.318l26.037,-31.398l11.022,-1.746l4.214,26.606l8.574,-1.357zm-37.967,6.013l18.371,-2.91l-2.466,-15.571l-15.905,18.481z"/>
  <path id="svg_47" fill="#263E4B" d="m580.01,608.49177l1.711,10.8l-8.573,1.358l1.107,6.988l-12.504,1.981l-1.107,-6.989l-30.251,4.791l-1.647,-10.394l26.434,-31.876l12.043,-1.907l4.214,26.606l8.573,-1.358zm-9.82,3.074l-4.214,-26.606l-10.002,1.584l-25.64,30.919l1.306,8.242l30.251,-4.791l1.106,6.989l9.541,-1.512l-1.106,-6.988l8.573,-1.358l-1.241,-7.837l-8.574,1.358zm-30.672,4.858l18.294,-21.258l2.837,17.911l-21.131,3.347zm19.415,-4.594l-2.096,-13.231l-13.515,15.704l15.611,-2.473zm51.236,10.748c-17.114,2.711 -27.097,-3.794 -29.47,-18.777c-2.362,-14.916 5.123,-24.132 22.245,-26.843c17.057,-2.702 27.098,3.798 29.451,18.655c2.363,14.925 -5.175,24.265 -22.226,26.965zm-0.234,-1.481c16.264,-2.576 23.207,-11.178 20.978,-25.25c-2.217,-14 -11.462,-19.985 -27.735,-17.408c-16.336,2.588 -23.224,11.068 -20.997,25.127c2.238,14.13 11.425,20.117 27.754,17.531zm-1.232,-7.776c-9.777,1.549 -15.588,-2.471 -16.981,-11.266c-1.383,-8.727 2.906,-14.291 12.688,-15.84c9.758,-1.546 15.586,2.455 16.962,11.144c1.387,8.756 -2.914,14.417 -12.669,15.962zm-0.235,-1.481c8.951,-1.418 12.677,-6.323 11.422,-14.247c-1.243,-7.852 -6.288,-11.316 -15.246,-9.897c-8.981,1.423 -12.69,6.235 -11.441,14.124c1.261,7.962 6.292,11.441 15.265,10.02zm78.094,-20.224l1.711,10.8l-8.573,1.357l1.106,6.989l-12.504,1.981l-1.107,-6.989l-30.25,4.791l-1.647,-10.394l26.434,-31.876l12.043,-1.907l4.214,26.606l8.573,-1.358zm-9.82,3.074l-4.214,-26.606l-10.002,1.584l-25.64,30.918l1.305,8.243l30.251,-4.791l1.107,6.988l9.541,-1.511l-1.107,-6.988l8.574,-1.358l-1.242,-7.837l-8.573,1.358zm-30.672,4.858l18.294,-21.258l2.837,17.911l-21.131,3.347zm19.415,-4.594l-2.096,-13.232l-13.515,15.705l15.611,-2.473z"/>
  <path id="svg_48" fill="#263E4B" d="m837.555,247.19577c0.091,-0.341 0.168,-0.659 0.232,-0.952l0.82,-17.31c1.359,-28.695 24.994,-51.261 53.69,-51.261l56.453,0l0,1.502l-56.453,0c-27.895,0 -50.87,21.936 -52.192,49.83l-0.238,5.033c2.651,-10.179 7.764,-19.285 15.345,-27.105c11.428,-11.787 25.58,-5.912 42.147,17.103c0.242,0.336 0.166,0.806 -0.17,1.048c-0.336,0.243 -0.805,0.166 -1.047,-0.17c-16.101,-22.368 -29.282,-27.839 -39.854,-16.935c-9.949,10.263 -15.535,22.778 -16.791,37.084c-0.035,0.398 -0.107,0.856 -0.217,1.377l-2.281,48.148l-1.498,-0.071l0.84,-17.734l-16.091,0c-0.59,0 -0.949,-0.652 -0.634,-1.152l17.939,-28.435zm-1.143,28.085l1.201,-25.365l-16.002,25.365l14.801,0z"/>
  <path id="svg_49" fill="#263E4B" d="m1058.91,314.40077c-0.41,-0.016 -0.74,-0.365 -0.72,-0.779c0.01,-0.415 0.36,-0.738 0.78,-0.722c5.52,0.211 8.15,-2.963 8.03,-9.905c-0.11,-6.973 -2.4,-10.22 -6.92,-10.141c-0.42,0.008 -0.76,-0.323 -0.77,-0.737c0,-0.415 0.33,-0.757 0.74,-0.764c5.5,-0.096 8.33,3.91 8.45,11.618c0.13,7.74 -3.13,11.677 -9.59,11.43zm-1.6,52.815c-0.41,-0.037 -0.72,-0.402 -0.68,-0.815c0.04,-0.413 0.4,-0.718 0.82,-0.68c5.5,0.5 8.29,-2.533 8.54,-9.471c0.25,-6.969 -1.87,-10.332 -6.39,-10.49c-0.41,-0.014 -0.74,-0.362 -0.72,-0.776c0.01,-0.415 0.36,-0.739 0.77,-0.724c5.5,0.192 8.12,4.34 7.84,12.044c-0.28,7.736 -3.74,11.497 -10.18,10.912zm-32.78,58.443c-0.38,-0.167 -0.56,-0.609 -0.39,-0.989c0.17,-0.38 0.61,-0.553 0.99,-0.387c5.09,2.234 8.49,0.769 10.55,-4.564c2.07,-5.369 0.98,-8.682 -3.27,-10.315c-0.39,-0.149 -0.58,-0.583 -0.43,-0.97c0.15,-0.387 0.58,-0.581 0.97,-0.432c5.1,1.957 6.48,6.168 4.13,12.257c-2.36,6.124 -6.67,7.98 -12.55,5.4zm-54.005,-199.876l1.45,0.387c-2.736,10.272 -8.445,16.334 -17.078,18.062l-0.294,-1.472c8.034,-1.609 13.325,-7.227 15.922,-16.977z"/>
  <path id="svg_50" fill="#263E4B" d="m886.526,245.69177l2,7.508c0.106,0.401 0.517,0.639 0.917,0.532c0.401,-0.107 0.639,-0.518 0.532,-0.919l-2,-7.508c-0.107,-0.401 -0.518,-0.639 -0.918,-0.532c-0.4,0.107 -0.638,0.518 -0.531,0.919z"/>
  <path id="svg_51" fill="#263E4B" d="m887.082,246.22977l6.5,1.502c0.403,0.093 0.806,-0.159 0.899,-0.563c0.093,-0.404 -0.159,-0.807 -0.562,-0.9l-6.5,-1.502c-0.404,-0.093 -0.806,0.159 -0.9,0.563c-0.093,0.404 0.159,0.807 0.563,0.9z"/>
  <path id="svg_52" fill="#263E4B" d="m1169.32,250.98277c-5.05,-6.105 -13.84,-6.75 -21.09,-1.977c-2.83,1.859 -4.88,4.508 -5.85,7.534c-2.44,7.627 7.14,27.116 28.75,58.957c0.23,0.343 0.7,0.432 1.04,0.199c0.34,-0.233 0.43,-0.7 0.2,-1.043c-21.26,-31.323 -30.78,-50.705 -28.56,-57.655c0.86,-2.693 2.7,-5.064 5.24,-6.738c6.65,-4.376 14.58,-3.794 19.12,1.682c0.26,0.319 0.74,0.363 1.05,0.098c0.32,-0.264 0.37,-0.738 0.1,-1.057z"/>
 </g>
</svg>